<svg width="573" height="31" viewBox="0 0 573 31" fill="none" xmlns="http://www.w3.org/2000/svg">
<path d="M13.5 25.956C10.8326 25.956 8.48616 25.4646 6.46057 24.4819C4.45504 23.4992 2.89073 22.1254 1.76763 20.3606C0.66459 18.5957 0.113069 16.54 0.113069 14.1936C0.113069 11.8471 0.66459 9.79143 1.76763 8.02656C2.89073 6.26169 4.45504 4.8879 6.46057 3.9052C8.48616 2.92249 10.8326 2.43113 13.5 2.43113C16.1874 2.43113 18.5339 2.92249 20.5394 3.9052C22.5449 4.8879 24.1092 6.26169 25.2323 8.02656C26.3554 9.79143 26.917 11.8471 26.917 14.1936C26.917 16.54 26.3554 18.5957 25.2323 20.3606C24.1092 22.1254 22.5449 23.4992 20.5394 24.4819C18.5339 25.4646 16.1874 25.956 13.5 25.956ZM13.5 20.3907C14.964 20.3907 16.2275 20.14 17.2904 19.6386C18.3534 19.1372 19.1656 18.4252 19.7272 17.5027C20.3088 16.5801 20.5996 15.4771 20.5996 14.1936C20.5996 12.91 20.3088 11.807 19.7272 10.8844C19.1656 9.9619 18.3534 9.24993 17.2904 8.74855C16.2275 8.24717 14.964 7.99648 13.5 7.99648C12.056 7.99648 10.8025 8.24717 9.73961 8.74855C8.67668 9.24993 7.85442 9.9619 7.27281 10.8844C6.69121 11.807 6.40041 12.91 6.40041 14.1936C6.40041 15.4771 6.69121 16.5801 7.27281 17.5027C7.85442 18.4252 8.67668 19.1372 9.73961 19.6386C10.8025 20.14 12.056 20.3907 13.5 20.3907ZM29.5925 25.4747V8.29731H35.7595V20.6915L33.9545 20.0597L43.5209 8.29731H50.0188L35.0676 25.4747H29.5925ZM43.5811 25.4747L38.6775 17.0815L43.3103 13.8326L50.5001 25.4747H43.5811ZM51.9197 8.29731H58.0566V25.4747H51.9197V8.29731ZM66.179 8.29731H72.3159V25.4747H66.179V8.29731ZM55.4695 14.4041H68.4954V18.9768H55.4695V14.4041ZM91.2092 25.4747L90.427 19.2776L91.2393 16.901L90.427 14.5245L91.2092 8.29731H97.5868L96.5038 16.8709L97.5868 25.4747H91.2092ZM92.6532 16.901C92.3724 18.706 91.8108 20.2904 90.9685 21.6541C90.1462 23.0179 89.0933 24.0808 87.8098 24.8429C86.5463 25.585 85.1023 25.956 83.4779 25.956C81.7932 25.956 80.3091 25.585 79.0256 24.8429C77.7621 24.0808 76.7694 23.0179 76.0474 21.6541C75.3254 20.2703 74.9644 18.686 74.9644 16.901C74.9644 15.076 75.3254 13.4816 76.0474 12.1178C76.7694 10.7541 77.7621 9.69115 79.0256 8.92905C80.3091 8.16695 81.7932 7.7859 83.4779 7.7859C85.1023 7.7859 86.5463 8.16695 87.8098 8.92905C89.0933 9.67109 90.1563 10.724 90.9986 12.0878C91.8409 13.4315 92.3924 15.0359 92.6532 16.901ZM81.1915 16.901C81.1915 17.7434 81.362 18.4954 81.703 19.1573C82.064 19.8191 82.5553 20.3405 83.177 20.7216C83.7987 21.0826 84.5107 21.2631 85.3129 21.2631C86.1552 21.2631 86.9474 21.0826 87.6895 20.7216C88.4315 20.3405 89.0833 19.8191 89.6449 19.1573C90.2064 18.4954 90.6276 17.7434 90.9083 16.901C90.6276 16.0387 90.2064 15.2766 89.6449 14.6147C89.0833 13.9529 88.4315 13.4315 87.6895 13.0504C86.9474 12.6694 86.1552 12.4788 85.3129 12.4788C84.5107 12.4788 83.7987 12.6694 83.177 13.0504C82.5553 13.4315 82.064 13.9529 81.703 14.6147C81.362 15.2766 81.1915 16.0387 81.1915 16.901ZM118.922 25.956C116.495 25.956 114.42 25.5148 112.695 24.6323C110.99 23.7299 109.677 22.4363 108.754 20.7516C107.852 19.0469 107.4 17.0013 107.4 14.6147C107.4 11.0649 108.383 8.26722 110.349 6.22158C112.314 4.15589 115.122 2.9626 118.772 2.64171C120.276 2.52138 121.519 2.4211 122.502 2.34088C123.485 2.2406 124.287 2.15036 124.909 2.07013C125.55 1.96986 126.092 1.86958 126.533 1.76931C126.994 1.66903 127.436 1.5487 127.857 1.40831V6.40208C127.375 6.58258 126.804 6.73299 126.142 6.85332C125.48 6.97366 124.648 7.07393 123.645 7.15415C122.662 7.23438 121.429 7.30457 119.945 7.36473C117.378 7.46501 115.493 8.11681 114.289 9.32013C113.106 10.5034 112.514 12.2281 112.514 14.4944V15.1261L112.334 14.6749C112.695 13.6721 113.277 12.8097 114.079 12.0878C114.881 11.3658 115.854 10.8142 116.997 10.4332C118.14 10.0321 119.383 9.83154 120.727 9.83154C122.472 9.83154 123.996 10.1524 125.3 10.7942C126.603 11.436 127.616 12.3485 128.338 13.5317C129.06 14.715 129.421 16.0788 129.421 17.623C129.421 19.3077 128.98 20.7817 128.097 22.0452C127.235 23.2886 126.022 24.2513 124.457 24.9332C122.893 25.6151 121.048 25.956 118.922 25.956ZM119.073 21.4135C119.915 21.4135 120.647 21.2631 121.269 20.9622C121.89 20.6614 122.372 20.2302 122.713 19.6687C123.054 19.1071 123.224 18.4653 123.224 17.7434C123.224 16.9813 123.054 16.3295 122.713 15.788C122.372 15.2465 121.89 14.8253 121.269 14.5245C120.647 14.2236 119.915 14.0732 119.073 14.0732C117.889 14.0732 116.816 14.3841 115.854 15.0058C114.911 15.6075 114.209 16.4498 113.748 17.5328C114.029 18.696 114.65 19.6386 115.613 20.3606C116.596 21.0625 117.749 21.4135 119.073 21.4135ZM136.337 30.9197C135.074 30.9197 133.951 30.7592 132.968 30.4384C131.985 30.1375 131.033 29.6662 130.11 29.0245V24.7527C131.053 25.3543 131.935 25.7855 132.757 26.0462C133.58 26.307 134.482 26.4373 135.465 26.4373C136.287 26.4373 137.019 26.2568 137.661 25.8958C138.303 25.5348 138.824 24.873 139.225 23.9104L145.813 8.29731H152.341L144.099 25.8056C143.517 27.0691 142.805 28.0718 141.963 28.8139C141.141 29.576 140.248 30.1175 139.285 30.4384C138.323 30.7592 137.34 30.9197 136.337 30.9197ZM136.548 23.8803L129.238 8.29731H136.006L142.474 23.8803H136.548ZM176.82 20.9021V29.596H171.525V25.4747H156.514V29.596H151.219V20.9021H156.394L157.537 20.9923H169.991L171.044 20.9021H176.82ZM154.799 8.29731H173.691V24.3014H167.585V9.95187L170.382 12.7496H157.808L160.094 10.5234C160.375 11.3457 160.545 12.1279 160.605 12.8699C160.666 13.5919 160.696 14.2537 160.696 14.8554C160.696 17.623 160.224 19.779 159.282 21.3232C158.339 22.8474 157.015 23.6095 155.311 23.6095L152.814 21.5037C154.378 20.4207 155.16 17.7935 155.16 13.622C155.16 12.8198 155.13 11.9674 155.07 11.0649C155.01 10.1624 154.92 9.2399 154.799 8.29731ZM184.047 30.9197C182.784 30.9197 181.66 30.7592 180.678 30.4384C179.695 30.1375 178.742 29.6662 177.82 29.0245V24.7527C178.762 25.3543 179.645 25.7855 180.467 26.0462C181.289 26.307 182.192 26.4373 183.175 26.4373C183.997 26.4373 184.729 26.2568 185.371 25.8958C186.012 25.5348 186.534 24.873 186.935 23.9104L193.523 8.29731H200.051L191.808 25.8056C191.227 27.0691 190.515 28.0718 189.673 28.8139C188.85 29.576 187.958 30.1175 186.995 30.4384C186.033 30.7592 185.05 30.9197 184.047 30.9197ZM184.258 23.8803L176.947 8.29731H183.716L190.184 23.8803H184.258ZM233.694 8.29731V22.7371L231.829 20.9021H236.763V29.596H231.468V24.1209L233.845 25.4747H201.776V8.29731H207.943V22.7371L206.078 20.9021H216.156L214.652 22.7371V8.29731H220.819V22.7371L218.954 20.9021H229.031L227.527 22.7371V8.29731H233.694ZM248.958 25.956C246.873 25.956 245.007 25.5749 243.363 24.8128C241.738 24.0507 240.455 22.9878 239.512 21.6241C238.57 20.2402 238.098 18.6358 238.098 16.8108C238.098 15.0259 238.55 13.4615 239.452 12.1178C240.355 10.7541 241.588 9.69115 243.152 8.92905C244.737 8.16695 246.522 7.7859 248.507 7.7859C250.573 7.7859 252.328 8.23714 253.772 9.13963C255.236 10.0221 256.359 11.2755 257.141 12.9C257.943 14.5245 258.344 16.4398 258.344 18.6458H243.062V14.9456H254.885L252.869 16.2392C252.789 15.3568 252.568 14.6147 252.207 14.0131C251.846 13.3914 251.365 12.9201 250.763 12.5992C250.182 12.2783 249.48 12.1178 248.657 12.1178C247.755 12.1178 246.983 12.2983 246.341 12.6593C245.699 13.0203 245.198 13.5217 244.837 14.1635C244.476 14.7852 244.295 15.5172 244.295 16.3595C244.295 17.4425 244.536 18.3651 245.017 19.1272C245.519 19.8692 246.241 20.4408 247.183 20.8419C248.146 21.243 249.319 21.4436 250.703 21.4436C251.967 21.4436 253.22 21.2831 254.463 20.9622C255.727 20.6213 256.87 20.15 257.893 19.5483V23.4591C256.71 24.2613 255.356 24.883 253.832 25.3243C252.328 25.7454 250.703 25.956 248.958 25.956ZM275.954 8.29731V12.9301H264.312L267.14 10.1023V25.4747H260.973V8.29731H275.954ZM287.682 25.956C285.476 25.956 283.55 25.585 281.906 24.8429C280.261 24.0808 278.978 23.0179 278.055 21.6541C277.133 20.2703 276.672 18.686 276.672 16.901C276.672 15.076 277.133 13.4816 278.055 12.1178C278.978 10.7541 280.261 9.69115 281.906 8.92905C283.55 8.16695 285.476 7.7859 287.682 7.7859C289.868 7.7859 291.783 8.16695 293.428 8.92905C295.092 9.69115 296.386 10.7541 297.308 12.1178C298.231 13.4816 298.692 15.076 298.692 16.901C298.692 18.686 298.231 20.2703 297.308 21.6541C296.386 23.0179 295.092 24.0808 293.428 24.8429C291.783 25.585 289.868 25.956 287.682 25.956ZM287.682 21.4135C288.685 21.4135 289.537 21.233 290.239 20.872C290.961 20.511 291.512 19.9895 291.893 19.3077C292.275 18.6258 292.465 17.8236 292.465 16.901C292.465 15.9384 292.275 15.1261 291.893 14.4643C291.512 13.7824 290.961 13.261 290.239 12.9C289.537 12.539 288.685 12.3585 287.682 12.3585C286.679 12.3585 285.817 12.539 285.095 12.9C284.373 13.261 283.821 13.7824 283.44 14.4643C283.059 15.1261 282.869 15.9283 282.869 16.8709C282.869 17.8135 283.059 18.6258 283.44 19.3077C283.821 19.9895 284.373 20.511 285.095 20.872C285.817 21.233 286.679 21.4135 287.682 21.4135ZM308.681 12.6593H325.287V17.262H308.681V12.6593ZM325.016 12.6593H341.622V17.262H325.016V12.6593ZM356.868 10.4031H363.035V25.4747H356.868V10.4031ZM350.34 8.29731H369.563V12.9301H350.34V8.29731ZM371.247 25.4747L372.33 16.8709L371.247 8.29731H385.236C386.901 8.29731 388.224 8.68838 389.207 9.47054C390.19 10.2326 390.681 11.2755 390.681 12.5992C390.681 13.8426 390.18 14.8554 389.177 15.6375C388.194 16.3996 386.83 16.8709 385.085 17.0514L385.477 16.0587C387.502 16.1389 389.046 16.5701 390.109 17.3523C391.192 18.1344 391.734 19.2174 391.734 20.6012C391.734 22.0853 391.182 23.2686 390.079 24.151C388.976 25.0335 387.492 25.4747 385.627 25.4747H371.247ZM377.174 24.1811L374.797 21.6541H383.581C384.243 21.6541 384.735 21.5137 385.055 21.233C385.396 20.9321 385.567 20.521 385.567 19.9996C385.567 19.5182 385.386 19.1272 385.025 18.8263C384.684 18.5055 384.133 18.345 383.371 18.345H376V15.1562H382.649C383.27 15.1562 383.742 15.0158 384.063 14.7351C384.384 14.4543 384.544 14.0833 384.544 13.622C384.544 13.1607 384.394 12.7897 384.093 12.5089C383.812 12.2281 383.371 12.0878 382.769 12.0878H374.827L377.174 9.59087L378.166 16.8709L377.174 24.1811ZM404.459 25.956C402.253 25.956 400.328 25.585 398.683 24.8429C397.038 24.0808 395.755 23.0179 394.832 21.6541C393.91 20.2703 393.449 18.686 393.449 16.901C393.449 15.076 393.91 13.4816 394.832 12.1178C395.755 10.7541 397.038 9.69115 398.683 8.92905C400.328 8.16695 402.253 7.7859 404.459 7.7859C406.645 7.7859 408.56 8.16695 410.205 8.92905C411.869 9.69115 413.163 10.7541 414.085 12.1178C415.008 13.4816 415.469 15.076 415.469 16.901C415.469 18.686 415.008 20.2703 414.085 21.6541C413.163 23.0179 411.869 24.0808 410.205 24.8429C408.56 25.585 406.645 25.956 404.459 25.956ZM404.459 21.4135C405.462 21.4135 406.314 21.233 407.016 20.872C407.738 20.511 408.289 19.9895 408.671 19.3077C409.052 18.6258 409.242 17.8236 409.242 16.901C409.242 15.9384 409.052 15.1261 408.671 14.4643C408.289 13.7824 407.738 13.261 407.016 12.9C406.314 12.539 405.462 12.3585 404.459 12.3585C403.456 12.3585 402.594 12.539 401.872 12.9C401.15 13.261 400.598 13.7824 400.217 14.4643C399.836 15.1261 399.646 15.9283 399.646 16.8709C399.646 17.8135 399.836 18.6258 400.217 19.3077C400.598 19.9895 401.15 20.511 401.872 20.872C402.594 21.233 403.456 21.4135 404.459 21.4135ZM418.056 25.4747V8.29731H424.133V22.1355L422.809 21.7143L431.804 8.29731H439.686V25.4747H433.639V11.2454L434.963 11.6967L425.727 25.4747H418.056ZM428.706 6.85332C426.6 6.85332 424.915 6.35194 423.652 5.34918C422.388 4.32636 421.606 2.86232 421.305 0.957066H425.998C426.159 1.73922 426.469 2.34088 426.931 2.76204C427.392 3.1832 427.984 3.39379 428.706 3.39379C429.428 3.39379 430.019 3.1832 430.48 2.76204C430.942 2.34088 431.243 1.73922 431.383 0.957066H436.106C435.805 2.86232 435.013 4.32636 433.729 5.34918C432.466 6.35194 430.791 6.85332 428.706 6.85332ZM450.127 25.4747L451.21 16.8709L450.127 8.29731H464.116C465.78 8.29731 467.104 8.68838 468.086 9.47054C469.069 10.2326 469.561 11.2755 469.561 12.5992C469.561 13.8426 469.059 14.8554 468.056 15.6375C467.074 16.3996 465.71 16.8709 463.965 17.0514L464.356 16.0587C466.382 16.1389 467.926 16.5701 468.989 17.3523C470.072 18.1344 470.613 19.2174 470.613 20.6012C470.613 22.0853 470.062 23.2686 468.959 24.151C467.856 25.0335 466.372 25.4747 464.507 25.4747H450.127ZM456.053 24.1811L453.677 21.6541H462.461C463.123 21.6541 463.614 21.5137 463.935 21.233C464.276 20.9321 464.446 20.521 464.446 19.9996C464.446 19.5182 464.266 19.1272 463.905 18.8263C463.564 18.5055 463.012 18.345 462.25 18.345H454.88V15.1562H461.528C462.15 15.1562 462.621 15.0158 462.942 14.7351C463.263 14.4543 463.424 14.0833 463.424 13.622C463.424 13.1607 463.273 12.7897 462.972 12.5089C462.692 12.2281 462.25 12.0878 461.649 12.0878H453.707L456.053 9.59087L457.046 16.8709L456.053 24.1811ZM493.565 8.29731H499.732V25.4747H493.565V8.29731ZM473.169 25.4747V8.29731H479.306V23.9705L477.411 21.1728H483.488C484.25 21.1728 484.841 20.9923 485.262 20.6313C485.684 20.2503 485.894 19.7288 485.894 19.067C485.894 18.3851 485.684 17.8637 485.262 17.5027C484.841 17.1216 484.25 16.9311 483.488 16.9311H477.381V12.7797H484.51C486.035 12.7797 487.358 13.0504 488.481 13.5919C489.604 14.1133 490.477 14.8554 491.099 15.818C491.74 16.7606 492.061 17.8637 492.061 19.1272C492.061 20.4107 491.75 21.5338 491.129 22.4965C490.507 23.4391 489.634 24.1711 488.511 24.6925C487.388 25.214 486.085 25.4747 484.601 25.4747H473.169ZM514.025 25.956C511.599 25.956 509.523 25.5148 507.798 24.6323C506.093 23.7299 504.78 22.4363 503.857 20.7516C502.955 19.0469 502.503 17.0013 502.503 14.6147C502.503 11.0649 503.486 8.26722 505.452 6.22158C507.417 4.15589 510.225 2.9626 513.875 2.64171C515.379 2.52138 516.622 2.4211 517.605 2.34088C518.588 2.2406 519.39 2.15036 520.012 2.07013C520.654 1.96986 521.195 1.86958 521.636 1.76931C522.098 1.66903 522.539 1.5487 522.96 1.40831V6.40208C522.479 6.58258 521.907 6.73299 521.245 6.85332C520.583 6.97366 519.751 7.07393 518.748 7.15415C517.766 7.23438 516.532 7.30457 515.048 7.36473C512.481 7.46501 510.596 8.11681 509.392 9.32013C508.209 10.5034 507.618 12.2281 507.618 14.4944V15.1261L507.437 14.6749C507.798 13.6721 508.38 12.8097 509.182 12.0878C509.984 11.3658 510.957 10.8142 512.1 10.4332C513.243 10.0321 514.487 9.83154 515.83 9.83154C517.575 9.83154 519.099 10.1524 520.403 10.7942C521.706 11.436 522.719 12.3485 523.441 13.5317C524.163 14.715 524.524 16.0788 524.524 17.623C524.524 19.3077 524.083 20.7817 523.201 22.0452C522.338 23.2886 521.125 24.2513 519.561 24.9332C517.996 25.6151 516.151 25.956 514.025 25.956ZM514.176 21.4135C515.018 21.4135 515.75 21.2631 516.372 20.9622C516.993 20.6614 517.475 20.2302 517.816 19.6687C518.157 19.1071 518.327 18.4653 518.327 17.7434C518.327 16.9813 518.157 16.3295 517.816 15.788C517.475 15.2465 516.993 14.8253 516.372 14.5245C515.75 14.2236 515.018 14.0732 514.176 14.0732C512.992 14.0732 511.919 14.3841 510.957 15.0058C510.014 15.6075 509.312 16.4498 508.851 17.5328C509.132 18.696 509.753 19.6386 510.716 20.3606C511.699 21.0625 512.852 21.4135 514.176 21.4135ZM537.364 25.956C535.158 25.956 533.233 25.585 531.589 24.8429C529.944 24.0808 528.66 23.0179 527.738 21.6541C526.815 20.2703 526.354 18.686 526.354 16.901C526.354 15.076 526.815 13.4816 527.738 12.1178C528.66 10.7541 529.944 9.69115 531.589 8.92905C533.233 8.16695 535.158 7.7859 537.364 7.7859C539.55 7.7859 541.466 8.16695 543.11 8.92905C544.775 9.69115 546.068 10.7541 546.991 12.1178C547.914 13.4816 548.375 15.076 548.375 16.901C548.375 18.686 547.914 20.2703 546.991 21.6541C546.068 23.0179 544.775 24.0808 543.11 24.8429C541.466 25.585 539.55 25.956 537.364 25.956ZM537.364 21.4135C538.367 21.4135 539.22 21.233 539.921 20.872C540.643 20.511 541.195 19.9895 541.576 19.3077C541.957 18.6258 542.148 17.8236 542.148 16.901C542.148 15.9384 541.957 15.1261 541.576 14.4643C541.195 13.7824 540.643 13.261 539.921 12.9C539.22 12.539 538.367 12.3585 537.364 12.3585C536.362 12.3585 535.499 12.539 534.777 12.9C534.055 13.261 533.504 13.7824 533.123 14.4643C532.742 15.1261 532.551 15.9283 532.551 16.8709C532.551 17.8135 532.742 18.6258 533.123 19.3077C533.504 19.9895 534.055 20.511 534.777 20.872C535.499 21.233 536.362 21.4135 537.364 21.4135ZM550.962 8.29731H557.129V13.2309L556.858 13.9529V18.7662L557.129 20.1801V30.4384H550.962V8.29731ZM555.173 16.901C555.434 15.0359 555.976 13.4315 556.798 12.0878C557.64 10.724 558.703 9.67109 559.987 8.92905C561.27 8.16695 562.724 7.7859 564.349 7.7859C566.033 7.7859 567.507 8.16695 568.771 8.92905C570.054 9.69115 571.047 10.7541 571.749 12.1178C572.471 13.4816 572.832 15.076 572.832 16.901C572.832 18.686 572.471 20.2703 571.749 21.6541C571.047 23.0179 570.054 24.0808 568.771 24.8429C567.507 25.585 566.033 25.956 564.349 25.956C562.724 25.956 561.27 25.585 559.987 24.8429C558.703 24.0808 557.65 23.0179 556.828 21.6541C556.006 20.2904 555.454 18.706 555.173 16.901ZM566.635 16.901C566.635 16.0387 566.454 15.2766 566.093 14.6147C565.752 13.9529 565.261 13.4315 564.619 13.0504C563.998 12.6694 563.286 12.4788 562.483 12.4788C561.661 12.4788 560.879 12.6694 560.137 13.0504C559.395 13.4315 558.743 13.9529 558.182 14.6147C557.62 15.2766 557.189 16.0387 556.888 16.901C557.189 17.7434 557.62 18.4954 558.182 19.1573C558.743 19.8191 559.395 20.3405 560.137 20.7216C560.879 21.0826 561.661 21.2631 562.483 21.2631C563.286 21.2631 563.998 21.0826 564.619 20.7216C565.261 20.3405 565.752 19.8191 566.093 19.1573C566.454 18.4954 566.635 17.7434 566.635 16.901Z" fill="white"/>
</svg>
