<svg width="536" height="99" viewBox="0 0 536 99" fill="none" xmlns="http://www.w3.org/2000/svg">
<rect width="535.981" height="98.2941" rx="12.7028" fill="white"/>
<path d="M379.195 50.1165H374.745V54.5356H379.195V50.1165Z" fill="#E50040"/>
<path d="M373.077 50.1165H368.627V54.5356H373.077V50.1165Z" fill="#E50040"/>
<path d="M385.314 44.0401H380.864V48.4592H385.314V44.0401Z" fill="#E50040"/>
<path d="M379.195 44.0401H374.745V48.4592H379.195V44.0401Z" fill="#E50040"/>
<path d="M373.077 44.0401H368.627V48.4592H373.077V44.0401Z" fill="#E50040"/>
<path d="M366.958 44.0401H362.508V48.4592H366.958V44.0401Z" fill="#E50040"/>
<path d="M385.314 37.9637L380.864 37.9637V42.383H385.314V37.9637Z" fill="#575756"/>
<path d="M379.195 37.9637H374.745V42.383H379.195V37.9637Z" fill="#575756"/>
<path d="M373.077 37.9637H368.627V42.383H373.077V37.9637Z" fill="#4FC7B5"/>
<path d="M366.958 37.9637H362.508V42.383H366.958V37.9637Z" fill="#4FC7B5"/>
<path d="M360.84 37.9637H356.39V42.383H360.84V37.9637Z" fill="#4FC7B5"/>
<path d="M385.314 31.8873H380.864V36.3065L385.314 36.3065V31.8873Z" fill="#575756"/>
<path d="M379.195 31.8873H374.745V36.3065H379.195V31.8873Z" fill="#575756"/>
<path d="M373.077 31.8873L368.627 31.8873V36.3065H373.077V31.8873Z" fill="#4FC7B5"/>
<path d="M366.958 31.8873H362.508V36.3065H366.958V31.8873Z" fill="#4FC7B5"/>
<path d="M360.84 31.8873H356.39V36.3065H360.84V31.8873Z" fill="#4FC7B5"/>
<path d="M379.195 25.812H374.745V30.2312H379.195V25.812Z" fill="#575756"/>
<path d="M373.077 25.812H368.627V30.2312L373.077 30.2312V25.812Z" fill="#4FC7B5"/>
<path d="M366.958 25.812H362.508V30.2312H366.958V25.812Z" fill="#4FC7B5"/>
<path d="M509.355 42.383V70.0017C509.355 72.7637 507.685 75.5257 504.348 75.5257H489.608V68.8969H498.785C500.175 68.8969 500.455 68.3445 500.455 67.2398V65.3058H492.946C489.608 65.3058 487.939 62.5438 487.939 59.7819V42.3871L496.84 42.383V58.1258C496.84 59.5061 497.395 59.7829 498.508 59.7829H500.455V42.383H509.355Z" fill="#313131"/>
<path d="M467.636 42.383C464.299 42.383 462.63 45.1448 462.63 47.9068V75.5236L471.53 75.5236L471.534 61.7158H475.145V75.5247H484.045V42.383L467.636 42.383ZM475.145 56.1918H471.53V49.563C471.53 48.1826 472.086 47.9132 473.199 47.9132L475.145 47.9059V56.1918Z" fill="#313131"/>
<path d="M458.737 64.4776V75.5257H449.837V61.7167H447.891C446.778 61.7167 446.222 61.9935 446.222 63.374V75.5214H437.322L437.326 64.4788C437.326 61.7167 438.713 59.2315 440.938 58.9485C438.713 58.678 437.323 56.1927 437.326 53.4309L437.322 42.3828H446.222V56.1918H448.168C449.281 56.1918 449.837 55.915 449.837 54.5345V42.3819H458.737V53.4298C458.74 56.1918 457.346 58.677 455.121 58.9474C457.346 59.2305 458.74 61.7158 458.737 64.4776Z" fill="#313131"/>
<path d="M427.031 56.1918H432.589V61.7158H427.031V68.8802L433.429 68.8969V75.5257L418.132 75.5257V42.3892L433.429 42.383V49.0117H427.031V56.1918Z" fill="#313131"/>
<path d="M409.232 42.3828H393.935V75.5225H402.832V66.6873H409.232C412.569 66.6873 414.238 63.9253 414.238 61.1633V47.9057C414.238 45.1437 412.569 42.3817 409.232 42.3828ZM406.451 59.505C406.451 60.8856 405.894 61.1623 404.782 61.1623H402.834L402.831 47.9048H404.781C405.893 47.9048 406.45 48.1815 406.45 49.5619L406.451 59.505Z" fill="#313131"/>
<line x1="323.693" y1="15.1387" x2="323.693" y2="84.7052" stroke="#313131" stroke-opacity="0.4" stroke-width="0.908442" stroke-linecap="round"/>
<path fill-rule="evenodd" clip-rule="evenodd" d="M59.7163 89.079C43.0162 89.079 29.3688 75.2985 29.3688 58.4354H37.9882C37.9882 70.5841 47.685 80.3755 59.7163 80.3755C71.568 80.3755 81.4444 70.5841 81.4444 58.4354H90.0638C90.0638 75.2985 76.4164 89.079 59.7163 89.079ZM89.8842 47.556H81.2648V27.4292L62.0507 40.6657C60.6142 41.7537 58.6389 41.7537 57.2023 40.6657L37.9882 27.4292V47.556H29.3688V19.0883C29.3688 17.4564 30.2666 16.0058 31.7032 15.2805C33.1398 14.5552 34.7559 14.5552 36.1925 15.4618L59.7163 31.7809L83.2401 15.4618C84.4971 14.5552 86.2928 14.3739 87.7294 15.2805C89.166 16.0058 90.0638 17.4564 90.0638 19.0883V47.556H89.8842Z" fill="#FF0000"/>
<path d="M114.041 46.5072V28.7968H117.749L122.184 34.9815C122.718 35.7323 123.151 36.3825 123.554 37.0792H123.608C123.933 36.4367 124.359 35.6781 124.901 34.8499L128.879 28.7968H132.617V46.5072H128.507V37.4739C128.507 36.8315 128.507 36.1038 128.531 35.562H128.507C128.345 35.9413 127.617 36.9863 127.323 37.443L124.444 41.8009H122.64L119.359 37.2882C118.979 36.7773 118.554 36.2432 118.174 35.5697H118.12C118.143 36.158 118.143 36.8624 118.143 37.3423V46.5072H114.041Z" fill="#3D3D40"/>
<path d="M146.557 46.9639C141.155 46.9639 137.416 43.2561 137.416 37.8764C137.416 32.4967 141.155 28.7968 146.557 28.7968C151.96 28.7968 155.698 32.5045 155.698 37.8842C155.698 43.2639 151.96 46.9716 146.557 46.9716V46.9639ZM146.557 43.5503C149.351 43.5503 151.317 41.6384 151.317 37.8764C151.317 34.1145 149.359 32.2026 146.557 32.2026C143.755 32.2026 141.797 34.1145 141.797 37.8764C141.797 41.6384 143.755 43.5503 146.557 43.5503Z" fill="#3D3D40"/>
<path d="M199.994 46.9639C194.592 46.9639 190.853 43.2561 190.853 37.8764C190.853 32.4967 194.592 28.7968 199.994 28.7968C205.397 28.7968 209.135 32.5045 209.135 37.8842C209.135 43.2639 205.397 46.9716 199.994 46.9716V46.9639ZM199.994 43.5503C202.788 43.5503 204.754 41.6384 204.754 37.8764C204.754 34.1145 202.796 32.2026 199.994 32.2026C197.192 32.2026 195.234 34.1145 195.234 37.8764C195.234 41.6384 197.2 43.5503 199.994 43.5503Z" fill="#3D3D40"/>
<path d="M214.066 28.7968H220.002C223.841 28.7968 225.567 31.057 225.567 33.2863C225.567 34.6331 224.894 36.0574 223.555 36.8082V36.8624C225.707 37.4507 226.806 39.1769 226.806 41.112C226.806 43.7206 224.708 46.5149 220.459 46.5149H214.066V28.7968ZM218.175 43.1787H219.871C221.837 43.1787 222.696 42.5053 222.696 41.081C222.696 39.8967 221.782 39.2233 220.25 39.2233H218.183V43.171L218.175 43.1787ZM218.175 35.8949H219.414C220.838 35.8949 221.566 35.0357 221.566 34.0681C221.566 33.0231 220.838 32.1562 219.306 32.1562H218.175V35.8949Z" fill="#3D3D40"/>
<path d="M260.637 28.7968H264.747V36.994C264.747 37.6907 264.747 38.9833 264.693 39.8967H264.747C265.258 39.1459 265.769 38.4725 266.334 37.7448L273.083 28.7968H277.193V46.5072H273.083V37.5049C273.083 36.7541 273.083 35.5697 273.161 34.9815H273.106C272.518 35.7633 272.007 36.4599 271.442 37.1875L264.453 46.5149H260.637V28.7968Z" fill="#3D3D40"/>
<path d="M281.21 28.7968H291.853V32.2645H285.32V35.8407H290.885V39.3084H285.32V43.0471H291.799V46.5149H281.21V28.7968Z" fill="#3D3D40"/>
<path d="M123.182 73.9552C117.78 73.9552 114.041 70.2475 114.041 64.8678C114.041 59.4881 117.78 55.7804 123.182 55.7804C128.585 55.7804 132.323 59.4881 132.323 64.8678C132.323 70.2475 128.585 73.9552 123.182 73.9552ZM123.182 70.5416C125.976 70.5416 127.942 68.6297 127.942 64.8678C127.942 61.1059 125.984 59.194 123.182 59.194C120.38 59.194 118.422 61.1059 118.422 64.8678C118.422 68.6297 120.38 70.5416 123.182 70.5416Z" fill="#3D3D40"/>
<path d="M155.698 73.4985V55.7881H159.808V62.7469H167.416V55.7881H171.526V73.4985H167.416V66.2379H159.808V73.4985H155.698Z" fill="#3D3D40"/>
<path d="M174.112 73.5837L181.07 55.7881H184.46L191.798 73.5837H187.393L185.698 69.3651H179.948L178.338 73.5837H174.112ZM181.101 66.0831H184.46L183.624 63.637C183.222 62.4295 183.005 61.6787 182.873 61.1136H182.819C182.688 61.7019 182.44 62.4605 181.983 63.668L181.093 66.0908L181.101 66.0831Z" fill="#3D3D40"/>
<path fill-rule="evenodd" clip-rule="evenodd" d="M159.769 37.8842C159.769 43.2639 163.508 46.9716 168.91 46.9716V43.558C166.116 43.558 164.15 41.6461 164.15 37.8842C164.15 34.1223 166.108 32.2103 168.91 32.2103V28.7968C163.508 28.7968 159.769 32.5045 159.769 37.8842Z" fill="#3D3D40"/>
<path d="M173.995 28.7968H177.865V35.9258L184.746 28.7968H189.584L181.991 36.2509L190.257 46.6001H185.397L179.181 38.6969L177.873 40.1212V46.6078H174.003V28.7968H173.995Z" fill="#3D3D40"/>
<path fill-rule="evenodd" clip-rule="evenodd" d="M229.46 37.8842C229.46 43.2639 233.199 46.9716 238.601 46.9716V43.558C235.807 43.558 233.841 41.6461 233.841 37.8842C233.841 34.1223 235.807 32.2103 238.601 32.2103V28.7968C233.199 28.7968 229.46 32.5045 229.46 37.8842Z" fill="#3D3D40"/>
<path d="M242.448 28.7968H246.318V35.9258L253.199 28.7968H258.037L250.436 36.2509L258.702 46.6001H253.842L247.626 38.6969L246.318 40.1212V46.6078H242.448V28.7968Z" fill="#3D3D40"/>
<path d="M136.455 55.7881H140.325V62.9172L147.206 55.7881H152.043L144.45 63.2423L152.717 73.5914H147.856L141.641 65.6883L140.332 67.1126V73.5992H136.462V55.7959L136.455 55.7881Z" fill="#3D3D40"/>
</svg>
