<svg width="155" height="29" viewBox="0 0 155 29" fill="none" xmlns="http://www.w3.org/2000/svg">
<path d="M6.53554 12.0093C5.33329 12.0093 4.27567 11.7879 3.36269 11.3449C2.45874 10.902 1.75366 10.2828 1.24745 9.48732C0.750277 8.69185 0.501691 7.7653 0.501691 6.70768C0.501691 5.65006 0.750277 4.72352 1.24745 3.92804C1.75366 3.13257 2.45874 2.51337 3.36269 2.07043C4.27567 1.6275 5.33329 1.40603 6.53554 1.40603C7.74683 1.40603 8.80445 1.6275 9.7084 2.07043C10.6123 2.51337 11.3174 3.13257 11.8236 3.92804C12.3298 4.72352 12.583 5.65006 12.583 6.70768C12.583 7.7653 12.3298 8.69185 11.8236 9.48732C11.3174 10.2828 10.6123 10.902 9.7084 11.3449C8.80445 11.7879 7.74683 12.0093 6.53554 12.0093ZM6.53554 9.50088C7.19542 9.50088 7.76491 9.38789 8.244 9.1619C8.7231 8.93591 9.08919 8.61501 9.3423 8.1992C9.60444 7.78338 9.73552 7.28621 9.73552 6.70768C9.73552 6.12916 9.60444 5.63199 9.3423 5.21617C9.08919 4.80035 8.7231 4.47945 8.244 4.25346C7.76491 4.02748 7.19542 3.91448 6.53554 3.91448C5.8847 3.91448 5.31973 4.02748 4.84064 4.25346C4.36155 4.47945 3.99093 4.80035 3.72878 5.21617C3.46664 5.63199 3.33557 6.12916 3.33557 6.70768C3.33557 7.28621 3.46664 7.78338 3.72878 8.1992C3.99093 8.61501 4.36155 8.93591 4.84064 9.1619C5.31973 9.38789 5.8847 9.50088 6.53554 9.50088ZM13.7889 11.7924V4.05008H16.5685V9.63647L15.755 9.35173L20.0668 4.05008H22.9956L16.2567 11.7924H13.7889ZM20.0939 11.7924L17.8838 8.00937L19.9719 6.54497L23.2125 11.7924H20.0939ZM23.8524 4.05008H26.6184V11.7924H23.8524V4.05008ZM30.2794 4.05008H33.0455V11.7924H30.2794V4.05008ZM25.4523 6.8026H31.3235V8.8636H25.4523V6.8026ZM41.5612 11.7924L41.2087 8.99919L41.5748 7.92801L41.2087 6.85683L41.5612 4.05008H44.4358L43.9476 7.91445L44.4358 11.7924H41.5612ZM42.2121 7.92801C42.0855 8.74157 41.8324 9.45568 41.4527 10.0704C41.0821 10.6851 40.6076 11.1641 40.029 11.5076C39.4595 11.8421 38.8087 12.0093 38.0765 12.0093C37.3172 12.0093 36.6483 11.8421 36.0697 11.5076C35.5003 11.1641 35.0528 10.6851 34.7274 10.0704C34.402 9.44664 34.2392 8.73253 34.2392 7.92801C34.2392 7.10542 34.402 6.38678 34.7274 5.7721C35.0528 5.15741 35.5003 4.67832 36.0697 4.33482C36.6483 3.99132 37.3172 3.81957 38.0765 3.81957C38.8087 3.81957 39.4595 3.99132 40.029 4.33482C40.6076 4.66928 41.0867 5.14385 41.4663 5.75854C41.846 6.36418 42.0946 7.08734 42.2121 7.92801ZM37.046 7.92801C37.046 8.30767 37.1228 8.64665 37.2765 8.94495C37.4392 9.24326 37.6607 9.47828 37.9409 9.65003C38.2211 9.81274 38.542 9.8941 38.9036 9.8941C39.2833 9.8941 39.6403 9.81274 39.9748 9.65003C40.3093 9.47828 40.603 9.24326 40.8561 8.94495C41.1092 8.64665 41.2991 8.30767 41.4256 7.92801C41.2991 7.53931 41.1092 7.19581 40.8561 6.89751C40.603 6.59921 40.3093 6.36418 39.9748 6.19243C39.6403 6.02068 39.2833 5.93481 38.9036 5.93481C38.542 5.93481 38.2211 6.02068 37.9409 6.19243C37.6607 6.36418 37.4392 6.59921 37.2765 6.89751C37.1228 7.19581 37.046 7.53931 37.046 7.92801ZM54.0522 12.0093C52.9584 12.0093 52.0229 11.8105 51.2455 11.4127C50.4771 11.006 49.885 10.4229 49.4692 9.66359C49.0624 8.89524 48.859 7.97321 48.859 6.89751C48.859 5.29752 49.302 4.03652 50.1878 3.11449C51.0737 2.18342 52.3392 1.64558 53.9844 1.50094C54.6624 1.44671 55.2228 1.40151 55.6658 1.36535C56.1087 1.32015 56.4703 1.27948 56.7505 1.24332C57.0398 1.19812 57.2838 1.15292 57.4827 1.10773C57.6906 1.06253 57.8895 1.00829 58.0793 0.945016V3.19585C57.8624 3.2772 57.6047 3.345 57.3064 3.39923C57.0081 3.45347 56.633 3.49867 56.181 3.53483C55.7381 3.57098 55.1822 3.60262 54.5132 3.62974C53.3562 3.67494 52.5065 3.96872 51.9641 4.51109C51.4308 5.04442 51.1641 5.82181 51.1641 6.84328V7.12802L51.0828 6.92463C51.2455 6.47266 51.5076 6.08396 51.8692 5.75854C52.2308 5.43312 52.6692 5.18453 53.1844 5.01278C53.6997 4.83199 54.2601 4.7416 54.8658 4.7416C55.6522 4.7416 56.3392 4.88623 56.9268 5.17549C57.5143 5.46475 57.9708 5.87605 58.2963 6.40938C58.6217 6.94271 58.7844 7.55739 58.7844 8.25343C58.7844 9.01275 58.5855 9.67715 58.1878 10.2466C57.7991 10.8071 57.2522 11.241 56.5471 11.5483C55.842 11.8557 55.0104 12.0093 54.0522 12.0093ZM54.12 9.96189C54.4997 9.96189 54.8296 9.8941 55.1098 9.75851C55.3901 9.62291 55.607 9.42857 55.7607 9.17546C55.9144 8.92235 55.9912 8.63309 55.9912 8.30767C55.9912 7.96417 55.9144 7.67039 55.7607 7.42632C55.607 7.18226 55.3901 6.99243 55.1098 6.85683C54.8296 6.72124 54.4997 6.65345 54.12 6.65345C53.5867 6.65345 53.1031 6.79356 52.6692 7.07378C52.2443 7.34497 51.9279 7.72462 51.72 8.21276C51.8466 8.73705 52.1268 9.1619 52.5607 9.48732C53.0036 9.8037 53.5234 9.96189 54.12 9.96189ZM61.9017 14.2466C61.3323 14.2466 60.826 14.1743 60.3831 14.0297C59.9402 13.8941 59.5108 13.6816 59.095 13.3924V11.467C59.5198 11.7382 59.9176 11.9325 60.2882 12.05C60.6588 12.1675 61.0656 12.2263 61.5085 12.2263C61.8791 12.2263 62.2091 12.1449 62.4983 11.9822C62.7876 11.8195 63.0226 11.5212 63.2034 11.0873L66.1729 4.05008H69.1152L65.4 11.9415C65.1379 12.511 64.817 12.963 64.4373 13.2975C64.0667 13.641 63.6644 13.885 63.2305 14.0297C62.7966 14.1743 62.3537 14.2466 61.9017 14.2466ZM61.9967 11.0738L58.7018 4.05008H61.7526L64.6678 11.0738H61.9967ZM80.1484 9.73139V13.65H77.762V11.7924H70.996V13.65H68.6095V9.73139H70.9417L71.457 9.77207H77.0705L77.5451 9.73139H80.1484ZM70.2231 4.05008H78.7383V11.2636H75.9857V4.79583L77.2467 6.05684H71.579L72.6095 5.05346C72.7361 5.42408 72.8129 5.77662 72.84 6.11108C72.8671 6.4365 72.8807 6.7348 72.8807 7.00599C72.8807 8.25343 72.6683 9.22518 72.2434 9.92122C71.8185 10.6082 71.2219 10.9517 70.4536 10.9517L69.3282 10.0026C70.0332 9.51444 70.3858 8.33027 70.3858 6.45006C70.3858 6.08848 70.3722 5.7043 70.3451 5.29752C70.318 4.89075 70.2773 4.47493 70.2231 4.05008ZM83.4058 14.2466C82.8363 14.2466 82.3301 14.1743 81.8872 14.0297C81.4442 13.8941 81.0149 13.6816 80.599 13.3924V11.467C81.0239 11.7382 81.4216 11.9325 81.7923 12.05C82.1629 12.1675 82.5697 12.2263 83.0126 12.2263C83.3832 12.2263 83.7131 12.1449 84.0024 11.9822C84.2917 11.8195 84.5267 11.5212 84.7075 11.0873L87.677 4.05008H90.6193L86.9041 11.9415C86.6419 12.511 86.321 12.963 85.9414 13.2975C85.5708 13.641 85.1685 13.885 84.7346 14.0297C84.3007 14.1743 83.8578 14.2466 83.4058 14.2466ZM83.5007 11.0738L80.2058 4.05008H83.2567L86.1719 11.0738H83.5007ZM105.783 4.05008V10.5585L104.943 9.73139H107.166V13.65H104.78V11.1822L105.851 11.7924H91.3968V4.05008H94.1765V10.5585L93.3358 9.73139H97.8781L97.2002 10.5585V4.05008H99.9798V10.5585L99.1392 9.73139H103.681L103.004 10.5585V4.05008H105.783ZM112.663 12.0093C111.723 12.0093 110.882 11.8376 110.141 11.4941C109.409 11.1506 108.83 10.6715 108.406 10.0568C107.981 9.43309 107.768 8.70993 107.768 7.88733C107.768 7.08282 107.972 6.37774 108.378 5.7721C108.785 5.15741 109.341 4.67832 110.046 4.33482C110.76 3.99132 111.565 3.81957 112.46 3.81957C113.391 3.81957 114.182 4.02296 114.833 4.42973C115.492 4.82747 115.999 5.39244 116.351 6.12464C116.713 6.85683 116.894 7.7201 116.894 8.71445H110.005V7.04666H115.334L114.426 7.62971C114.39 7.23197 114.29 6.89751 114.127 6.62633C113.965 6.3461 113.748 6.13368 113.477 5.98904C113.215 5.84441 112.898 5.7721 112.528 5.7721C112.121 5.7721 111.773 5.85345 111.483 6.01616C111.194 6.17887 110.968 6.40486 110.805 6.69412C110.643 6.97435 110.561 7.30429 110.561 7.68395C110.561 8.17208 110.67 8.58789 110.887 8.93139C111.113 9.26585 111.438 9.52348 111.863 9.70427C112.297 9.88506 112.826 9.97545 113.45 9.97545C114.019 9.97545 114.584 9.90314 115.144 9.75851C115.714 9.60484 116.229 9.39241 116.69 9.12122V10.8839C116.157 11.2455 115.547 11.5257 114.86 11.7246C114.182 11.9144 113.45 12.0093 112.663 12.0093ZM124.831 4.05008V6.1382H119.583L120.858 4.86363V11.7924H118.078V4.05008H124.831ZM130.117 12.0093C129.123 12.0093 128.255 11.8421 127.514 11.5076C126.772 11.1641 126.194 10.6851 125.778 10.0704C125.362 9.44664 125.154 8.73253 125.154 7.92801C125.154 7.10542 125.362 6.38678 125.778 5.7721C126.194 5.15741 126.772 4.67832 127.514 4.33482C128.255 3.99132 129.123 3.81957 130.117 3.81957C131.102 3.81957 131.965 3.99132 132.707 4.33482C133.457 4.67832 134.04 5.15741 134.456 5.7721C134.872 6.38678 135.08 7.10542 135.08 7.92801C135.08 8.73253 134.872 9.44664 134.456 10.0704C134.04 10.6851 133.457 11.1641 132.707 11.5076C131.965 11.8421 131.102 12.0093 130.117 12.0093ZM130.117 9.96189C130.569 9.96189 130.953 9.88054 131.269 9.71783C131.595 9.55512 131.843 9.32009 132.015 9.01275C132.187 8.70541 132.273 8.34383 132.273 7.92801C132.273 7.49412 132.187 7.12802 132.015 6.82972C131.843 6.52237 131.595 6.28735 131.269 6.12464C130.953 5.96193 130.569 5.88057 130.117 5.88057C129.665 5.88057 129.276 5.96193 128.951 6.12464C128.625 6.28735 128.377 6.52237 128.205 6.82972C128.033 7.12802 127.947 7.4896 127.947 7.91445C127.947 8.33931 128.033 8.70541 128.205 9.01275C128.377 9.32009 128.625 9.55512 128.951 9.71783C129.276 9.88054 129.665 9.96189 130.117 9.96189ZM139.582 6.01616H147.066V8.09072H139.582V6.01616ZM146.944 6.01616H154.429V8.09072H146.944V6.01616ZM3.13218 18.9992H5.91182V25.7924H3.13218V18.9992ZM0.189829 18.0501H8.85417V20.1382H0.189829V18.0501ZM9.61338 25.7924L10.1015 21.9145L9.61338 18.0501H15.9184C16.6687 18.0501 17.2653 18.2263 17.7082 18.5789C18.1512 18.9224 18.3726 19.3924 18.3726 19.989C18.3726 20.5495 18.1466 21.006 17.6947 21.3585C17.2517 21.702 16.6371 21.9145 15.8506 21.9958L16.0269 21.5484C16.9399 21.5845 17.6359 21.7789 18.115 22.1314C18.6031 22.4839 18.8472 22.9721 18.8472 23.5958C18.8472 24.2647 18.5986 24.798 18.1014 25.1958C17.6043 25.5935 16.9354 25.7924 16.0947 25.7924H9.61338ZM12.2845 25.2093L11.2134 24.0704H15.1727C15.471 24.0704 15.6924 24.0071 15.8371 23.8805C15.9907 23.7449 16.0676 23.5596 16.0676 23.3246C16.0676 23.1077 15.9862 22.9314 15.8235 22.7958C15.6698 22.6512 15.4212 22.5789 15.0777 22.5789H11.7557V21.1416H14.7523C15.0325 21.1416 15.245 21.0783 15.3896 20.9517C15.5342 20.8252 15.6066 20.658 15.6066 20.4501C15.6066 20.2421 15.5388 20.0749 15.4032 19.9484C15.2766 19.8218 15.0777 19.7585 14.8066 19.7585H11.2269L12.2845 18.6331L12.732 21.9145L12.2845 25.2093ZM24.5828 26.0093C23.5884 26.0093 22.7206 25.8421 21.9794 25.5076C21.2381 25.1641 20.6596 24.6851 20.2438 24.0704C19.828 23.4466 19.6201 22.7325 19.6201 21.928C19.6201 21.1054 19.828 20.3868 20.2438 19.7721C20.6596 19.1574 21.2381 18.6783 21.9794 18.3348C22.7206 17.9913 23.5884 17.8196 24.5828 17.8196C25.5681 17.8196 26.4313 17.9913 27.1726 18.3348C27.9228 18.6783 28.5059 19.1574 28.9217 19.7721C29.3375 20.3868 29.5454 21.1054 29.5454 21.928C29.5454 22.7325 29.3375 23.4466 28.9217 24.0704C28.5059 24.6851 27.9228 25.1641 27.1726 25.5076C26.4313 25.8421 25.5681 26.0093 24.5828 26.0093ZM24.5828 23.9619C25.0347 23.9619 25.4189 23.8805 25.7353 23.7178C26.0607 23.5551 26.3093 23.3201 26.481 23.0127C26.6528 22.7054 26.7387 22.3438 26.7387 21.928C26.7387 21.4941 26.6528 21.128 26.481 20.8297C26.3093 20.5224 26.0607 20.2873 25.7353 20.1246C25.4189 19.9619 25.0347 19.8806 24.5828 19.8806C24.1308 19.8806 23.7421 19.9619 23.4167 20.1246C23.0912 20.2873 22.8427 20.5224 22.6709 20.8297C22.4992 21.128 22.4133 21.4896 22.4133 21.9145C22.4133 22.3393 22.4992 22.7054 22.6709 23.0127C22.8427 23.3201 23.0912 23.5551 23.4167 23.7178C23.7421 23.8805 24.1308 23.9619 24.5828 23.9619ZM30.7114 25.7924V18.0501H33.4504V24.2873L32.8538 24.0975L36.908 18.0501H40.4605V25.7924H37.7351V19.3789L38.3317 19.5823L34.169 25.7924H30.7114ZM35.5114 17.3992C34.5622 17.3992 33.8029 17.1732 33.2334 16.7213C32.6639 16.2603 32.3114 15.6004 32.1758 14.7416H34.291C34.3634 15.0942 34.5035 15.3654 34.7114 15.5552C34.9193 15.745 35.186 15.8399 35.5114 15.8399C35.8368 15.8399 36.1035 15.745 36.3114 15.5552C36.5193 15.3654 36.6549 15.0942 36.7181 14.7416H38.8469C38.7113 15.6004 38.3543 16.2603 37.7758 16.7213C37.2063 17.1732 36.4515 17.3992 35.5114 17.3992ZM45.1666 25.7924L45.6547 21.9145L45.1666 18.0501H51.4716C52.2219 18.0501 52.8185 18.2263 53.2614 18.5789C53.7044 18.9224 53.9258 19.3924 53.9258 19.989C53.9258 20.5495 53.6999 21.006 53.2479 21.3585C52.805 21.702 52.1903 21.9145 51.4038 21.9958L51.5801 21.5484C52.4931 21.5845 53.1891 21.7789 53.6682 22.1314C54.1564 22.4839 54.4004 22.9721 54.4004 23.5958C54.4004 24.2647 54.1518 24.798 53.6547 25.1958C53.1575 25.5935 52.4886 25.7924 51.6479 25.7924H45.1666ZM47.8378 25.2093L46.7666 24.0704H50.7259C51.0242 24.0704 51.2456 24.0071 51.3903 23.8805C51.5439 23.7449 51.6208 23.5596 51.6208 23.3246C51.6208 23.1077 51.5394 22.9314 51.3767 22.7958C51.223 22.6512 50.9745 22.5789 50.631 22.5789H47.309V21.1416H50.3055C50.5858 21.1416 50.7982 21.0783 50.9428 20.9517C51.0875 20.8252 51.1598 20.658 51.1598 20.4501C51.1598 20.2421 51.092 20.0749 50.9564 19.9484C50.8298 19.8218 50.631 19.7585 50.3598 19.7585H46.7801L47.8378 18.6331L48.2852 21.9145L47.8378 25.2093ZM64.7455 18.0501H67.5251V25.7924H64.7455V18.0501ZM55.5523 25.7924V18.0501H58.3184V25.1144L57.4642 23.8534H60.2031C60.5466 23.8534 60.8133 23.7721 61.0031 23.6094C61.1929 23.4376 61.2879 23.2026 61.2879 22.9043C61.2879 22.5969 61.1929 22.3619 61.0031 22.1992C60.8133 22.0274 60.5466 21.9416 60.2031 21.9416H57.4506V20.0704H60.6641C61.3511 20.0704 61.9477 20.1924 62.454 20.4365C62.9602 20.6715 63.3534 21.006 63.6336 21.4399C63.9229 21.8647 64.0675 22.3619 64.0675 22.9314C64.0675 23.5099 63.9274 24.0161 63.6472 24.45C63.3669 24.8749 62.9737 25.2048 62.4675 25.4398C61.9613 25.6749 61.3737 25.7924 60.7048 25.7924H55.5523ZM73.9673 26.0093C72.8735 26.0093 71.938 25.8105 71.1606 25.4127C70.3922 25.006 69.8001 24.4229 69.3843 23.6636C68.9775 22.8952 68.7741 21.9732 68.7741 20.8975C68.7741 19.2975 69.2171 18.0365 70.1029 17.1145C70.9888 16.1834 72.2543 15.6456 73.8995 15.5009C74.5775 15.4467 75.1379 15.4015 75.5809 15.3654C76.0238 15.3202 76.3854 15.2795 76.6656 15.2433C76.9549 15.1981 77.1989 15.1529 77.3978 15.1077C77.6057 15.0625 77.8046 15.0083 77.9944 14.945V17.1958C77.7775 17.2772 77.5198 17.345 77.2215 17.3992C76.9232 17.4535 76.5481 17.4987 76.0961 17.5348C75.6532 17.571 75.0973 17.6026 74.4283 17.6297C73.2713 17.6749 72.4216 17.9687 71.8792 18.5111C71.3459 19.0444 71.0792 19.8218 71.0792 20.8433V21.128L70.9979 20.9246C71.1606 20.4727 71.4227 20.084 71.7843 19.7585C72.1459 19.4331 72.5843 19.1845 73.0995 19.0128C73.6148 18.832 74.1752 18.7416 74.7809 18.7416C75.5673 18.7416 76.2543 18.8862 76.8419 19.1755C77.4294 19.4648 77.8859 19.8761 78.2114 20.4094C78.5368 20.9427 78.6995 21.5574 78.6995 22.2534C78.6995 23.0127 78.5006 23.6772 78.1029 24.2466C77.7142 24.8071 77.1673 25.241 76.4622 25.5483C75.7571 25.8557 74.9255 26.0093 73.9673 26.0093ZM74.0351 23.9619C74.4148 23.9619 74.7447 23.8941 75.0249 23.7585C75.3052 23.6229 75.5221 23.4286 75.6758 23.1755C75.8295 22.9224 75.9063 22.6331 75.9063 22.3077C75.9063 21.9642 75.8295 21.6704 75.6758 21.4263C75.5221 21.1823 75.3052 20.9924 75.0249 20.8568C74.7447 20.7212 74.4148 20.6534 74.0351 20.6534C73.5018 20.6534 73.0182 20.7936 72.5843 21.0738C72.1594 21.345 71.843 21.7246 71.6351 22.2128C71.7617 22.737 72.0419 23.1619 72.4758 23.4873C72.9187 23.8037 73.4385 23.9619 74.0351 23.9619ZM84.4869 26.0093C83.4926 26.0093 82.6248 25.8421 81.8836 25.5076C81.1423 25.1641 80.5638 24.6851 80.148 24.0704C79.7322 23.4466 79.5243 22.7325 79.5243 21.928C79.5243 21.1054 79.7322 20.3868 80.148 19.7721C80.5638 19.1574 81.1423 18.6783 81.8836 18.3348C82.6248 17.9913 83.4926 17.8196 84.4869 17.8196C85.4722 17.8196 86.3355 17.9913 87.0768 18.3348C87.827 18.6783 88.4101 19.1574 88.8259 19.7721C89.2417 20.3868 89.4496 21.1054 89.4496 21.928C89.4496 22.7325 89.2417 23.4466 88.8259 24.0704C88.4101 24.6851 87.827 25.1641 87.0768 25.5076C86.3355 25.8421 85.4722 26.0093 84.4869 26.0093ZM84.4869 23.9619C84.9389 23.9619 85.3231 23.8805 85.6395 23.7178C85.9649 23.5551 86.2135 23.3201 86.3852 23.0127C86.557 22.7054 86.6429 22.3438 86.6429 21.928C86.6429 21.4941 86.557 21.128 86.3852 20.8297C86.2135 20.5224 85.9649 20.2873 85.6395 20.1246C85.3231 19.9619 84.9389 19.8806 84.4869 19.8806C84.035 19.8806 83.6463 19.9619 83.3208 20.1246C82.9954 20.2873 82.7468 20.5224 82.5751 20.8297C82.4033 21.128 82.3175 21.4896 82.3175 21.9145C82.3175 22.3393 82.4033 22.7054 82.5751 23.0127C82.7468 23.3201 82.9954 23.5551 83.3208 23.7178C83.6463 23.8805 84.035 23.9619 84.4869 23.9619ZM90.6156 18.0501H93.3952V20.2738L93.2732 20.5992V22.7687L93.3952 23.406V28.0297H90.6156V18.0501ZM92.5139 21.928C92.6314 21.0873 92.8755 20.3642 93.2461 19.7585C93.6257 19.1439 94.1048 18.6693 94.6834 18.3348C95.2619 17.9913 95.9173 17.8196 96.6495 17.8196C97.4088 17.8196 98.0732 17.9913 98.6427 18.3348C99.2212 18.6783 99.6686 19.1574 99.985 19.7721C100.31 20.3868 100.473 21.1054 100.473 21.928C100.473 22.7325 100.31 23.4466 99.985 24.0704C99.6686 24.6851 99.2212 25.1641 98.6427 25.5076C98.0732 25.8421 97.4088 26.0093 96.6495 26.0093C95.9173 26.0093 95.2619 25.8421 94.6834 25.5076C94.1048 25.1641 93.6303 24.6851 93.2596 24.0704C92.889 23.4557 92.6404 22.7416 92.5139 21.928ZM97.68 21.928C97.68 21.5393 97.5986 21.1958 97.4359 20.8975C97.2822 20.5992 97.0607 20.3642 96.7715 20.1924C96.4913 20.0207 96.1704 19.9348 95.8088 19.9348C95.4382 19.9348 95.0856 20.0207 94.7512 20.1924C94.4167 20.3642 94.1229 20.5992 93.8698 20.8975C93.6167 21.1958 93.4224 21.5393 93.2868 21.928C93.4224 22.3077 93.6167 22.6467 93.8698 22.945C94.1229 23.2433 94.4167 23.4783 94.7512 23.65C95.0856 23.8127 95.4382 23.8941 95.8088 23.8941C96.1704 23.8941 96.4913 23.8127 96.7715 23.65C97.0607 23.4783 97.2822 23.2433 97.4359 22.945C97.5986 22.6467 97.68 22.3077 97.68 21.928Z" fill="white"/>
</svg>
