<svg width="161" height="52" viewBox="0 0 161 52" fill="none" xmlns="http://www.w3.org/2000/svg">
<rect width="160.211" height="51.6057" rx="7.25101" fill="#FF4545"/>
<path d="M41.5483 31.3028V20.4263H44.8983V28.649L44.0282 27.9384L49.8145 20.4263H53.353L44.6083 31.3028H41.5483ZM46.7546 26.2126L49.2344 24.2113L53.5125 31.3028H49.684L46.7546 26.2126ZM56.9326 31.3028L58.9484 27.7643H58.9919L63.1395 20.4263H66.7795L60.5726 31.3028H56.9326ZM58.8759 29.9106L53.4231 20.4263H57.1356L61.2832 27.7063L58.8759 29.9106ZM79.496 20.4263V31.3028H76.117V21.891L77.6397 23.4137H69.5621L71.0848 21.891V31.3028H67.7058V20.4263H79.496ZM81.3864 31.3028V20.4263H84.7219V29.4901L83.8228 29.2871L89.5221 20.4263H93.9307V31.3028H90.5952V22.036L91.4798 22.2391L85.6645 31.3028H81.3864ZM99.1966 21.891H102.576V31.3028H99.1966V21.891ZM95.1651 20.4263H106.607V23.4282H95.1651V20.4263ZM107.841 31.3028V20.4263H111.22V30.1717L109.698 28.6635H113.831C114.256 28.6635 114.59 28.5571 114.831 28.3444C115.073 28.1221 115.194 27.8224 115.194 27.4453C115.194 27.0586 115.073 26.7589 114.831 26.5462C114.59 26.3335 114.256 26.2271 113.831 26.2271H109.408V23.5878H114.048C115.005 23.5878 115.822 23.7473 116.499 24.0663C117.176 24.3854 117.693 24.8349 118.051 25.415C118.418 25.9951 118.602 26.6719 118.602 27.4453C118.602 28.2284 118.418 28.91 118.051 29.4901C117.693 30.0605 117.176 30.5052 116.499 30.8243C115.822 31.1433 115.005 31.3028 114.048 31.3028H107.841Z" fill="white"/>
</svg>
