<svg width="397" height="69" viewBox="0 0 397 69" fill="none" xmlns="http://www.w3.org/2000/svg">
<path d="M16.7759 28.5569C13.6899 28.5569 10.9751 27.9884 8.63161 26.8514C6.31128 25.7145 4.50143 24.1251 3.20205 22.0832C1.92587 20.0413 1.28778 17.663 1.28778 14.9482C1.28778 12.2334 1.92587 9.85506 3.20205 7.81318C4.50143 5.77129 6.31128 4.18187 8.63161 3.04491C10.9751 1.90795 13.6899 1.33947 16.7759 1.33947C19.8852 1.33947 22.6 1.90795 24.9203 3.04491C27.2406 4.18187 29.0505 5.77129 30.3498 7.81318C31.6492 9.85506 32.2989 12.2334 32.2989 14.9482C32.2989 17.663 31.6492 20.0413 30.3498 22.0832C29.0505 24.1251 27.2406 25.7145 24.9203 26.8514C22.6 27.9884 19.8852 28.5569 16.7759 28.5569ZM16.7759 22.118C18.4698 22.118 19.9316 21.8279 21.1614 21.2479C22.3911 20.6678 23.3309 19.8441 23.9806 18.7767C24.6534 17.7094 24.9899 16.4332 24.9899 14.9482C24.9899 13.4632 24.6534 12.187 23.9806 11.1196C23.3309 10.0523 22.3911 9.22857 21.1614 8.64849C19.9316 8.06841 18.4698 7.77837 16.7759 7.77837C15.1053 7.77837 13.6551 8.06841 12.4253 8.64849C11.1956 9.22857 10.2442 10.0523 9.57134 11.1196C8.89844 12.187 8.562 13.4632 8.562 14.9482C8.562 16.4332 8.89844 17.7094 9.57134 18.7767C10.2442 19.8441 11.1956 20.6678 12.4253 21.2479C13.6551 21.8279 15.1053 22.118 16.7759 22.118ZM35.3944 28V8.12642H42.5294V22.466L40.4411 21.7351L51.509 8.12642H59.0269L41.7289 28H35.3944ZM51.5786 28L45.9054 18.2894L51.2654 14.5305L59.5838 28H51.5786ZM61.2261 8.12642H68.3263V28H61.2261V8.12642ZM77.7236 8.12642H84.8238V28H77.7236V8.12642ZM65.3331 15.1918H80.4036V20.4821H65.3331V15.1918ZM106.683 28L105.778 20.8302L106.717 18.0806L105.778 15.331L106.683 8.12642H114.061L112.808 18.0458L114.061 28H106.683ZM108.353 18.0806C108.028 20.1689 107.379 22.002 106.404 23.5798C105.453 25.1576 104.235 26.3874 102.75 27.2691C101.288 28.1276 99.6172 28.5569 97.7378 28.5569C95.7887 28.5569 94.0717 28.1276 92.5867 27.2691C91.1249 26.3874 89.9763 25.1576 89.141 23.5798C88.3057 21.9788 87.888 20.1457 87.888 18.0806C87.888 15.9691 88.3057 14.1245 89.141 12.5466C89.9763 10.9688 91.1249 9.73905 92.5867 8.85732C94.0717 7.9756 95.7887 7.53474 97.7378 7.53474C99.6172 7.53474 101.288 7.9756 102.75 8.85732C104.235 9.71584 105.464 10.934 106.439 12.5118C107.414 14.0665 108.052 15.9227 108.353 18.0806ZM95.0926 18.0806C95.0926 19.0551 95.2898 19.9253 95.6843 20.691C96.102 21.4567 96.6704 22.06 97.3897 22.5008C98.109 22.9185 98.9327 23.1273 99.8609 23.1273C100.835 23.1273 101.752 22.9185 102.61 22.5008C103.469 22.06 104.223 21.4567 104.873 20.691C105.522 19.9253 106.01 19.0551 106.335 18.0806C106.01 17.0829 105.522 16.2011 104.873 15.4354C104.223 14.6697 103.469 14.0665 102.61 13.6256C101.752 13.1847 100.835 12.9643 99.8609 12.9643C98.9327 12.9643 98.109 13.1847 97.3897 13.6256C96.6704 14.0665 96.102 14.6697 95.6843 15.4354C95.2898 16.2011 95.0926 17.0829 95.0926 18.0806ZM138.746 28.5569C135.938 28.5569 133.536 28.0464 131.541 27.0255C129.569 25.9813 128.049 24.4847 126.981 22.5356C125.937 20.5634 125.415 18.1966 125.415 15.4354C125.415 11.3285 126.552 8.09161 128.826 5.72488C131.1 3.33495 134.349 1.95436 138.572 1.5831C140.312 1.44388 141.75 1.32787 142.887 1.23506C144.024 1.11904 144.952 1.01462 145.672 0.921812C146.414 0.805796 147.041 0.689779 147.551 0.573763C148.085 0.457747 148.595 0.318528 149.083 0.156106V5.93371C148.526 6.14254 147.864 6.31657 147.099 6.45579C146.333 6.59501 145.37 6.71102 144.21 6.80384C143.073 6.89665 141.646 6.97786 139.929 7.04747C136.959 7.16349 134.778 7.91759 133.386 9.30979C132.017 10.6788 131.332 12.6743 131.332 15.2962V16.0271L131.123 15.5051C131.541 14.3449 132.214 13.3472 133.142 12.5118C134.07 11.6765 135.195 11.0384 136.518 10.5976C137.841 10.1335 139.279 9.90147 140.834 9.90147C142.852 9.90147 144.616 10.2727 146.124 11.0152C147.632 11.7577 148.804 12.8135 149.639 14.1825C150.475 15.5515 150.892 17.1293 150.892 18.9159C150.892 20.865 150.382 22.5704 149.361 24.0322C148.363 25.4708 146.959 26.5846 145.15 27.3735C143.34 28.1624 141.205 28.5569 138.746 28.5569ZM138.92 23.3013C139.894 23.3013 140.741 23.1273 141.46 22.7793C142.18 22.4312 142.736 21.9324 143.131 21.2827C143.525 20.633 143.723 19.8905 143.723 19.0551C143.723 18.1734 143.525 17.4193 143.131 16.7928C142.736 16.1663 142.18 15.6791 141.46 15.331C140.741 14.983 139.894 14.809 138.92 14.809C137.551 14.809 136.309 15.1686 135.195 15.8879C134.105 16.584 133.293 17.5585 132.759 18.8115C133.084 20.1573 133.803 21.2479 134.917 22.0832C136.054 22.8953 137.388 23.3013 138.92 23.3013ZM158.894 34.2997C157.432 34.2997 156.133 34.1141 154.996 33.7428C153.859 33.3948 152.757 32.8495 151.69 32.107V27.1647C152.78 27.8608 153.801 28.3597 154.752 28.6613C155.704 28.9629 156.748 29.1138 157.885 29.1138C158.836 29.1138 159.683 28.9049 160.426 28.4873C161.168 28.0696 161.771 27.3039 162.236 26.1901L169.858 8.12642H177.41L167.874 28.3829C167.201 29.8447 166.377 31.0048 165.403 31.8633C164.451 32.7451 163.419 33.3716 162.305 33.7428C161.191 34.1141 160.054 34.2997 158.894 34.2997ZM159.138 26.1553L150.68 8.12642H158.511L165.994 26.1553H159.138ZM205.731 22.7097V32.7683H199.606V28H182.238V32.7683H176.112V22.7097H182.099L183.421 22.8141H197.831L199.049 22.7097H205.731ZM180.254 8.12642H202.112V26.6426H195.046V10.0407L198.283 13.2775H183.735L186.38 10.702C186.705 11.6533 186.902 12.5582 186.971 13.4168C187.041 14.2521 187.076 15.0178 187.076 15.7139C187.076 18.9159 186.531 21.4103 185.44 23.1969C184.35 24.9604 182.818 25.8421 180.846 25.8421L177.957 23.4058C179.767 22.1528 180.672 19.1132 180.672 14.2869C180.672 13.3588 180.637 12.3726 180.567 11.3285C180.498 10.2843 180.393 9.21697 180.254 8.12642ZM214.093 34.2997C212.631 34.2997 211.331 34.1141 210.194 33.7428C209.058 33.3948 207.955 32.8495 206.888 32.107V27.1647C207.979 27.8608 209 28.3597 209.951 28.6613C210.902 28.9629 211.946 29.1138 213.083 29.1138C214.035 29.1138 214.882 28.9049 215.624 28.4873C216.367 28.0696 216.97 27.3039 217.434 26.1901L225.056 8.12642H232.609L223.072 28.3829C222.399 29.8447 221.576 31.0048 220.601 31.8633C219.65 32.7451 218.617 33.3716 217.503 33.7428C216.39 34.1141 215.253 34.2997 214.093 34.2997ZM214.336 26.1553L205.879 8.12642H213.71L221.193 26.1553H214.336ZM271.533 8.12642V24.8328L269.375 22.7097H275.083V32.7683H268.957V26.4338L271.707 28H234.605V8.12642H241.74V24.8328L239.582 22.7097H251.241L249.501 24.8328V8.12642H256.636V24.8328L254.478 22.7097H266.138L264.398 24.8328V8.12642H271.533ZM289.193 28.5569C286.779 28.5569 284.622 28.116 282.719 27.2343C280.839 26.3526 279.354 25.1228 278.264 23.545C277.173 21.944 276.628 20.0877 276.628 17.9762C276.628 15.9111 277.15 14.1013 278.194 12.5466C279.238 10.9688 280.665 9.73905 282.475 8.85732C284.308 7.9756 286.373 7.53474 288.67 7.53474C291.06 7.53474 293.091 8.05681 294.761 9.10096C296.455 10.1219 297.755 11.5721 298.659 13.4516C299.588 15.331 300.052 17.5469 300.052 20.0993H282.371V15.8183H296.049L293.717 17.3149C293.624 16.294 293.369 15.4354 292.951 14.7393C292.534 14.02 291.977 13.4748 291.281 13.1035C290.608 12.7323 289.796 12.5466 288.845 12.5466C287.8 12.5466 286.907 12.7555 286.165 13.1731C285.422 13.5908 284.842 14.1709 284.424 14.9134C284.007 15.6327 283.798 16.4796 283.798 17.4541C283.798 18.7071 284.076 19.7744 284.633 20.6562C285.213 21.5147 286.049 22.176 287.139 22.6401C288.253 23.1041 289.61 23.3361 291.211 23.3361C292.673 23.3361 294.123 23.1505 295.562 22.7793C297.024 22.3848 298.346 21.8395 299.53 21.1434V25.6681C298.161 26.5962 296.594 27.3155 294.831 27.826C293.091 28.3132 291.211 28.5569 289.193 28.5569ZM320.426 8.12642V13.4864H306.956L310.228 10.2147V28H303.093V8.12642H320.426ZM333.994 28.5569C331.442 28.5569 329.214 28.1276 327.312 27.2691C325.409 26.3874 323.924 25.1576 322.857 23.5798C321.789 21.9788 321.256 20.1457 321.256 18.0806C321.256 15.9691 321.789 14.1245 322.857 12.5466C323.924 10.9688 325.409 9.73905 327.312 8.85732C329.214 7.9756 331.442 7.53474 333.994 7.53474C336.523 7.53474 338.739 7.9756 340.642 8.85732C342.568 9.73905 344.065 10.9688 345.132 12.5466C346.199 14.1245 346.733 15.9691 346.733 18.0806C346.733 20.1457 346.199 21.9788 345.132 23.5798C344.065 25.1576 342.568 26.3874 340.642 27.2691C338.739 28.1276 336.523 28.5569 333.994 28.5569ZM333.994 23.3013C335.154 23.3013 336.141 23.0925 336.953 22.6749C337.788 22.2572 338.426 21.6539 338.867 20.865C339.308 20.0761 339.528 19.148 339.528 18.0806C339.528 16.9669 339.308 16.0271 338.867 15.2614C338.426 14.4725 337.788 13.8692 336.953 13.4516C336.141 13.0339 335.154 12.8251 333.994 12.8251C332.834 12.8251 331.836 13.0339 331.001 13.4516C330.166 13.8692 329.528 14.4725 329.087 15.2614C328.646 16.0271 328.426 16.9553 328.426 18.0458C328.426 19.1364 328.646 20.0761 329.087 20.865C329.528 21.6539 330.166 22.2572 331.001 22.6749C331.836 23.0925 332.834 23.3013 333.994 23.3013ZM358.289 13.1731H377.502V18.4983H358.289V13.1731ZM377.189 13.1731H396.401V18.4983H377.189V13.1731ZM8.03992 45.5628H15.1749V63H8.03992V45.5628ZM0.487268 43.1264H22.7276V48.4864H0.487268V43.1264ZM24.6764 63L25.9294 53.0458L24.6764 43.1264H40.8606C42.7865 43.1264 44.3179 43.5789 45.4549 44.4838C46.5918 45.3655 47.1603 46.5721 47.1603 48.1035C47.1603 49.5421 46.5802 50.7139 45.4201 51.6188C44.2831 52.5005 42.7053 53.0458 40.6866 53.2546L41.1391 52.1061C43.4826 52.1989 45.2693 52.6978 46.499 53.6027C47.752 54.5076 48.3785 55.7606 48.3785 57.3616C48.3785 59.0787 47.7404 60.4476 46.4642 61.4686C45.188 62.4895 43.471 63 41.3131 63H24.6764ZM31.5329 61.5034L28.7834 58.5798H38.9464C39.7121 58.5798 40.2806 58.4174 40.6518 58.0925C41.0463 57.7445 41.2435 57.2688 41.2435 56.6655C41.2435 56.1086 41.0347 55.6562 40.617 55.3081C40.2226 54.9369 39.5845 54.7512 38.7027 54.7512H30.1755V51.0619H37.8674C38.5867 51.0619 39.132 50.8995 39.5033 50.5747C39.8745 50.2498 40.0601 49.8206 40.0601 49.2869C40.0601 48.7532 39.8861 48.3239 39.5381 47.9991C39.2132 47.6743 38.7027 47.5118 38.0066 47.5118H28.8182L31.5329 44.623L32.6815 53.0458L31.5329 61.5034ZM63.101 63.5569C60.5486 63.5569 58.3211 63.1276 56.4184 62.2691C54.5157 61.3874 53.0307 60.1576 51.9634 58.5798C50.896 56.9788 50.3624 55.1457 50.3624 53.0806C50.3624 50.9691 50.896 49.1245 51.9634 47.5466C53.0307 45.9688 54.5157 44.739 56.4184 43.8573C58.3211 42.9756 60.5486 42.5347 63.101 42.5347C65.6301 42.5347 67.846 42.9756 69.7487 43.8573C71.6745 44.739 73.1712 45.9688 74.2385 47.5466C75.3059 49.1245 75.8395 50.9691 75.8395 53.0806C75.8395 55.1457 75.3059 56.9788 74.2385 58.5798C73.1712 60.1576 71.6745 61.3874 69.7487 62.2691C67.846 63.1276 65.6301 63.5569 63.101 63.5569ZM63.101 58.3013C64.2611 58.3013 65.2473 58.0925 66.0594 57.6749C66.8947 57.2572 67.5328 56.6539 67.9736 55.865C68.4145 55.0761 68.6349 54.148 68.6349 53.0806C68.6349 51.9669 68.4145 51.0271 67.9736 50.2614C67.5328 49.4725 66.8947 48.8692 66.0594 48.4516C65.2473 48.0339 64.2611 47.8251 63.101 47.8251C61.9408 47.8251 60.943 48.0339 60.1077 48.4516C59.2724 48.8692 58.6343 49.4725 58.1935 50.2614C57.7526 51.0271 57.5322 51.9553 57.5322 53.0458C57.5322 54.1364 57.7526 55.0761 58.1935 55.865C58.6343 56.6539 59.2724 57.2572 60.1077 57.6749C60.943 58.0925 61.9408 58.3013 63.101 58.3013ZM78.8325 63V43.1264H85.8631V59.1367L84.3316 58.6494L94.7383 43.1264H103.857V63H96.8614V46.5373L98.3928 47.0594L87.7077 63H78.8325ZM91.1534 41.4558C88.7171 41.4558 86.768 40.8757 85.3062 39.7155C83.8444 38.5322 82.9395 36.8383 82.5914 34.634H88.021C88.2066 35.539 88.5662 36.2351 89.0999 36.7223C89.6336 37.2096 90.3181 37.4532 91.1534 37.4532C91.9887 37.4532 92.6732 37.2096 93.2069 36.7223C93.7406 36.2351 94.0886 35.539 94.251 34.634H99.7154C99.3674 36.8383 98.4508 38.5322 96.9658 39.7155C95.504 40.8757 93.5665 41.4558 91.1534 41.4558ZM115.937 63L117.19 53.0458L115.937 43.1264H132.121C134.047 43.1264 135.579 43.5789 136.716 44.4838C137.853 45.3655 138.421 46.5721 138.421 48.1035C138.421 49.5421 137.841 50.7139 136.681 51.6188C135.544 52.5005 133.966 53.0458 131.947 53.2546L132.4 52.1061C134.743 52.1989 136.53 52.6978 137.76 53.6027C139.013 54.5076 139.639 55.7606 139.639 57.3616C139.639 59.0787 139.001 60.4476 137.725 61.4686C136.449 62.4895 134.732 63 132.574 63H115.937ZM122.794 61.5034L120.044 58.5798H130.207C130.973 58.5798 131.541 58.4174 131.913 58.0925C132.307 57.7445 132.504 57.2688 132.504 56.6655C132.504 56.1086 132.295 55.6562 131.878 55.3081C131.483 54.9369 130.845 54.7512 129.964 54.7512H121.436V51.0619H129.128C129.848 51.0619 130.393 50.8995 130.764 50.5747C131.135 50.2498 131.321 49.8206 131.321 49.2869C131.321 48.7532 131.147 48.3239 130.799 47.9991C130.474 47.6743 129.964 47.5118 129.267 47.5118H120.079L122.794 44.623L123.942 53.0458L122.794 61.5034ZM166.194 43.1264H173.329V63H166.194V43.1264ZM142.596 63V43.1264H149.696V61.2598L147.504 58.0229H154.534C155.416 58.0229 156.1 57.8141 156.588 57.3964C157.075 56.9556 157.319 56.3523 157.319 55.5866C157.319 54.7977 157.075 54.1944 156.588 53.7767C156.1 53.3358 155.416 53.1154 154.534 53.1154H147.469V48.3123H155.718C157.481 48.3123 159.012 48.6256 160.312 49.2521C161.611 49.8554 162.62 50.7139 163.34 51.8276C164.082 52.9182 164.454 54.1944 164.454 55.6562C164.454 57.1412 164.094 58.4406 163.375 59.5543C162.655 60.6449 161.646 61.4918 160.347 62.0951C159.047 62.6984 157.539 63 155.822 63H142.596ZM189.865 63.5569C187.058 63.5569 184.656 63.0464 182.661 62.0255C180.688 60.9813 179.168 59.4847 178.101 57.5356C177.057 55.5634 176.535 53.1966 176.535 50.4354C176.535 46.3285 177.672 43.0916 179.946 40.7249C182.22 38.3349 185.468 36.9544 189.691 36.5831C191.431 36.4439 192.87 36.3279 194.007 36.2351C195.144 36.119 196.072 36.0146 196.791 35.9218C197.534 35.8058 198.16 35.6898 198.671 35.5738C199.204 35.4577 199.715 35.3185 200.202 35.1561V40.9337C199.645 41.1425 198.984 41.3166 198.218 41.4558C197.453 41.595 196.49 41.711 195.33 41.8038C194.193 41.8966 192.766 41.9779 191.049 42.0475C188.079 42.1635 185.897 42.9176 184.505 44.3098C183.136 45.6788 182.452 47.6743 182.452 50.2962V51.0271L182.243 50.5051C182.661 49.3449 183.333 48.3472 184.262 47.5118C185.19 46.6765 186.315 46.0384 187.638 45.5976C188.96 45.1335 190.399 44.9015 191.953 44.9015C193.972 44.9015 195.736 45.2727 197.244 46.0152C198.752 46.7577 199.924 47.8135 200.759 49.1825C201.594 50.5515 202.012 52.1293 202.012 53.9159C202.012 55.865 201.502 57.5704 200.481 59.0322C199.483 60.4708 198.079 61.5846 196.269 62.3735C194.459 63.1624 192.325 63.5569 189.865 63.5569ZM190.039 58.3013C191.014 58.3013 191.861 58.1273 192.58 57.7793C193.299 57.4312 193.856 56.9324 194.251 56.2827C194.645 55.633 194.842 54.8905 194.842 54.0551C194.842 53.1734 194.645 52.4193 194.251 51.7928C193.856 51.1663 193.299 50.6791 192.58 50.331C191.861 49.983 191.014 49.809 190.039 49.809C188.67 49.809 187.429 50.1686 186.315 50.8879C185.225 51.584 184.412 52.5585 183.879 53.8115C184.204 55.1573 184.923 56.2479 186.037 57.0832C187.174 57.8953 188.508 58.3013 190.039 58.3013ZM216.868 63.5569C214.315 63.5569 212.088 63.1276 210.185 62.2691C208.283 61.3874 206.798 60.1576 205.73 58.5798C204.663 56.9788 204.129 55.1457 204.129 53.0806C204.129 50.9691 204.663 49.1245 205.73 47.5466C206.798 45.9688 208.283 44.739 210.185 43.8573C212.088 42.9756 214.315 42.5347 216.868 42.5347C219.397 42.5347 221.613 42.9756 223.515 43.8573C225.441 44.739 226.938 45.9688 228.005 47.5466C229.073 49.1245 229.606 50.9691 229.606 53.0806C229.606 55.1457 229.073 56.9788 228.005 58.5798C226.938 60.1576 225.441 61.3874 223.515 62.2691C221.613 63.1276 219.397 63.5569 216.868 63.5569ZM216.868 58.3013C218.028 58.3013 219.014 58.0925 219.826 57.6749C220.661 57.2572 221.3 56.6539 221.74 55.865C222.181 55.0761 222.402 54.148 222.402 53.0806C222.402 51.9669 222.181 51.0271 221.74 50.2614C221.3 49.4725 220.661 48.8692 219.826 48.4516C219.014 48.0339 218.028 47.8251 216.868 47.8251C215.708 47.8251 214.71 48.0339 213.875 48.4516C213.039 48.8692 212.401 49.4725 211.96 50.2614C211.519 51.0271 211.299 51.9553 211.299 53.0458C211.299 54.1364 211.519 55.0761 211.96 55.865C212.401 56.6539 213.039 57.2572 213.875 57.6749C214.71 58.0925 215.708 58.3013 216.868 58.3013ZM232.599 43.1264H239.734V48.8344L239.421 49.6697V55.2385L239.734 56.8743V68.7428H232.599V43.1264ZM237.472 53.0806C237.774 50.9227 238.4 49.0665 239.351 47.5118C240.326 45.934 241.556 44.7158 243.041 43.8573C244.526 42.9756 246.208 42.5347 248.087 42.5347C250.037 42.5347 251.742 42.9756 253.204 43.8573C254.689 44.739 255.837 45.9688 256.649 47.5466C257.485 49.1245 257.902 50.9691 257.902 53.0806C257.902 55.1457 257.485 56.9788 256.649 58.5798C255.837 60.1576 254.689 61.3874 253.204 62.2691C251.742 63.1276 250.037 63.5569 248.087 63.5569C246.208 63.5569 244.526 63.1276 243.041 62.2691C241.556 61.3874 240.338 60.1576 239.386 58.5798C238.435 57.002 237.797 55.1689 237.472 53.0806ZM250.733 53.0806C250.733 52.0829 250.524 51.2011 250.106 50.4354C249.712 49.6697 249.143 49.0665 248.401 48.6256C247.681 48.1847 246.858 47.9643 245.93 47.9643C244.978 47.9643 244.073 48.1847 243.215 48.6256C242.356 49.0665 241.602 49.6697 240.952 50.4354C240.303 51.2011 239.804 52.0829 239.456 53.0806C239.804 54.0551 240.303 54.9253 240.952 55.691C241.602 56.4567 242.356 57.06 243.215 57.5008C244.073 57.9185 244.978 58.1273 245.93 58.1273C246.858 58.1273 247.681 57.9185 248.401 57.5008C249.143 57.06 249.712 56.4567 250.106 55.691C250.524 54.9253 250.733 54.0551 250.733 53.0806Z" fill="white"/>
</svg>
